<?xml version="1.0" encoding="UTF-8" standalone="no"?>
<!DOCTYPE svg PUBLIC "-//W3C//DTD SVG 1.1//EN" "http://www.w3.org/Graphics/SVG/1.1/DTD/svg11.dtd">
<svg width="100%" height="100%" viewBox="0 0 470 470" version="1.1" xmlns="http://www.w3.org/2000/svg" xmlns:xlink="http://www.w3.org/1999/xlink" xml:space="preserve" xmlns:serif="http://www.serif.com/" style="fill-rule:evenodd;clip-rule:evenodd;stroke-linejoin:round;stroke-miterlimit:2;">
    <g>
        <g>
            <path d="M456.836,76.168L392.836,12.114C376.711,-4.025 348.659,-4.056 332.471,12.145L45.763,301.682C44.492,302.964 43.575,304.539 43.075,306.269L0.409,455.73C-0.654,459.452 0.388,463.466 3.128,466.208C5.159,468.241 7.878,469.336 10.67,469.336C11.649,469.336 12.639,469.2 13.597,468.929L162.93,426.226C164.659,425.726 166.232,424.808 167.513,423.536L456.836,136.553C464.899,128.484 469.336,117.766 469.336,106.361C469.336,94.956 464.899,84.237 456.836,76.168ZM285.989,89.737L325.253,129.001L120.257,333.998L105.545,304.564C103.732,300.949 100.045,298.668 96.003,298.668L78.921,298.668L285.989,89.737ZM26.201,443.137L40.095,394.5L74.837,429.242L26.201,443.137ZM149.336,407.96L98.301,422.539L46.798,371.036L61.377,320.001L89.408,320.001L107.793,356.772C108.824,358.835 110.501,360.512 112.564,361.543L149.335,379.928L149.335,407.96L149.336,407.96ZM170.67,390.417L170.67,373.335C170.67,369.293 168.389,365.606 164.774,363.793L135.34,349.081L340.336,144.085L379.6,183.349L170.67,390.417ZM441.784,121.72L394.751,168.333L301.004,74.586L347.586,27.585C355.649,19.522 369.69,19.522 377.753,27.585L441.753,91.585C445.784,95.616 448.003,100.97 448.003,106.668C448.003,112.366 445.784,117.72 441.784,121.72Z" style="fill:white;fill-rule:nonzero;"/>
        </g>
    </g>
</svg>
